<svg version="1" xmlns="http://www.w3.org/2000/svg" width="933.333" height="933.333" viewBox="0 0 700.000000 700.000000"><path d="M62.3 35.5c-1.8.8-4 2.8-5 4.7-1.7 3.1-1.8 10-1.6 151.3.2 130.4.2 266.4 0 370-.1 18.1.3 39.7.7 48l.8 15-3.4 7c-2.8 5.9-3.3 8.1-3.3 14 0 9.1 3.2 14.2 11.1 18.1 4.9 2.4 6.3 2.6 13.5 2.2 7.1-.4 9.1-1 17.2-5.2 5.6-2.8 19-11.8 33.9-22.9 25.6-18.9 65.7-48.6 102.8-76.1 34.2-25.4 36.7-27.2 93.5-69.2 29.7-22 60.5-44.9 68.5-50.8 8-5.9 15.4-11.4 16.5-12.2 1.1-.8 8.8-6.5 17.2-12.7 8.3-6.1 22.7-16.8 32-23.7 68.6-50.7 85.3-63.3 89.8-67.6 6.5-6.1 12.4-7.4 16-3.4 1.7 1.9 1.8 34.4 1.3 301.2-.1 24 0 24.7 2.3 29.4 3.8 7.6 7 9 20.4 8.6 13.8-.5 24.5-.5 40.7-.2 11.5.2 13.1 0 16.2-1.9 6.6-4.1 6.1 18.2 6-283.6 0-151.3-.2-281.8-.5-290-.2-8.3 0-21.1.3-28.5 1.1-22-.2-23.2-23.4-22.7-10.7.2-15.1.7-17.3 1.9-1.7.9-14.1 9.9-27.5 20-13.5 10-28.8 21.4-34 25.2-5.2 3.9-18.9 14-30.5 22.6-19.2 14.2-53.2 39.4-80.5 59.5-6 4.4-28.4 21-50 37-48.7 36.1-59.7 44.2-99.5 73.4-17.6 12.9-35.1 25.7-39 28.6-3.8 2.8-20.2 14.8-36.3 26.6-16.2 11.8-34.9 25.4-41.5 30.3-21.1 15.4-23.6 16.6-27.1 12.7-1.6-1.8-1.7-12.3-1.5-162.8.1-126.2-.1-161.9-1.1-164.9-1.6-4.9-4.4-8.1-8.4-9.3-5-1.6-65.5-1.2-69.3.4z"/></svg>