<svg version="1" xmlns="http://www.w3.org/2000/svg" width="933.333" height="933.333" viewBox="0 0 700.000000 700.000000"><path d="M62.3 35.5c-1.8.8-4 2.8-5 4.7-1.7 3.1-1.8 10-1.6 151.3.2 130.4.2 266.4 0 370-.1 18.1.3 39.7.7 48l.8 15-3.4 7c-2.8 5.9-3.3 8.1-3.3 14 0 9.1 3.2 14.2 11.1 18.1 4.9 2.4 6.3 2.6 13.5 2.2 7.1-.4 9.1-1 17.2-5.2 5.6-2.8 19-11.8 33.9-22.9 32.4-23.9 98.8-73.1 125.3-92.7 11.6-8.6 43.7-32.5 71.5-53 27.8-20.6 57.7-42.7 66.5-49.3 8.8-6.5 16.9-12.5 18-13.3 3.3-2.4 27.7-20.5 47-34.8 9.9-7.3 25-18.5 33.5-24.8 35-25.9 54.7-40.8 58.5-44.3 6.9-6.4 12.4-7.5 16-3.5 1.6 1.7 1.7 12.5 1.5 138.7-.1 75.2-.2 148.1-.2 161.9-.1 24.7-.1 25.2 2.3 30 3.8 7.6 7 9 20.4 8.6 13.8-.5 24.5-.5 40.7-.2 11.5.2 13.1 0 16.2-1.9 6.6-4.1 6.1 18.3 5.9-283.6-.1-151.3-.2-283.8-.2-294.5 0-10.7.1-24 .2-29.6.2-16.3-1.6-17.6-23.8-17.1-10.4.3-14.8.7-17 1.9-1.7.9-12.5 8.7-24 17.3-23.4 17.4-22.2 16.5-36 26.8-5.5 4-18.8 13.9-29.5 21.8-10.7 8-23.8 17.6-29 21.4-5.2 3.8-9.9 7.3-10.5 7.7-2.2 1.8-18.8 14.1-31.5 23.5-7.4 5.4-22 16.3-32.5 24-57.7 42.8-91.1 67.4-130.5 96.3-16.8 12.3-33.6 24.6-37.5 27.5-3.8 2.8-20.2 14.8-36.3 26.6-16.2 11.8-34.9 25.4-41.5 30.3-21.1 15.4-23.6 16.6-27.1 12.7-1.6-1.8-1.7-12.3-1.5-162.8.1-126.2-.1-161.9-1.1-164.9-1.6-4.9-4.4-8.1-8.4-9.3-5-1.6-65.5-1.2-69.3.4z"/></svg>